<svg id="Layer_1" data-name="Layer 1" xmlns="http://www.w3.org/2000/svg" viewBox="0 0 743.08 760.25"><defs><style>.cls-1{fill:#ffe6e1;}.cls-2{fill:#521f4d;}.cls-3{fill:#ee938b;}.cls-4{fill:#e8525f;}.cls-5{fill:#fff;}.cls-6{fill:#d16363;}</style></defs><circle class="cls-1" cx="371.54" cy="388.71" r="371.54"/><path class="cls-2" d="M2529.19,2112.67c26.27-153-36.73-347.43-209.92-358.52-55.27-3.54-109.26,16.77-137.13,55.94-95.59,37.68-103.62,205.54-92.94,263.31,29.27,158.39-111.91,131.14-76.06,279.83l295.1-16.25h11.31l289.83,3.72C2633.81,2228.52,2517.29,2236.08,2529.19,2112.67Z" transform="translate(-1941.31 -1753.75)"/><rect class="cls-3" x="284.38" y="339.77" width="174.05" height="222.03"/><path class="cls-4" d="M2632.17,2332.39c-81.92-34.42-231.4-60.34-231.4-60.34-57.4,48.29-129.94,48-175.09,0,0,0-151.33,22.4-236.76,52.34,61,108.44,174.89,183.16,306.71,189.18,5.91.17,11.8.41,17.75.42C2448.94,2513.79,2567.44,2441,2632.17,2332.39Z" transform="translate(-1941.31 -1753.75)"/><path class="cls-5" d="M2466.76,2066.71c-6.49,0-11.75,9.36-11.75,20.9s5.26,20.91,11.75,20.91,11.75-9.36,11.75-20.91S2473.24,2066.71,2466.76,2066.71Zm0,32.65c-4.46,0-8.08-6.44-8.08-14.38s3.62-14.39,8.08-14.39,8.08,6.44,8.08,14.39S2471.22,2099.36,2466.76,2099.36Z" transform="translate(-1941.31 -1753.75)"/><path class="cls-5" d="M2146.33,2087.61c0,11.55,5.26,20.91,11.74,20.91s11.75-9.36,11.75-20.91-5.26-20.9-11.75-20.9S2146.33,2076.07,2146.33,2087.61ZM2150,2085c0-7.95,3.62-14.39,8.08-14.39s8.09,6.44,8.09,14.39-3.62,14.38-8.09,14.38S2150,2092.92,2150,2085Z" transform="translate(-1941.31 -1753.75)"/><path class="cls-3" d="M2312.49,1824.66h0c-112.19.13-137.71,84.15-135.36,168.75,0,61-.37,105.94,5.28,121s45,105.79,130.08,105.95h0c85.1-.16,124.43-90.88,130.08-105.95s5.29-60,5.29-121C2450.21,1908.81,2424.68,1824.79,2312.49,1824.66Z" transform="translate(-1941.31 -1753.75)"/><path class="cls-6" d="M2312.5,2222.89c-33.36-.06-63.45-13.62-89.44-40.29l3.58-3.49c25,25.68,53.91,38.73,85.86,38.78,31.42,0,59.9-12.69,84.65-37.55l3.53,3.52C2375,2209.69,2345.3,2222.82,2312.5,2222.89Z" transform="translate(-1941.31 -1753.75)"/><path class="cls-3" d="M2182.05,1990.51s-22.55-33.2-45.73-13.78-.62,129.68,45.73,110.26S2182.05,1990.51,2182.05,1990.51Z" transform="translate(-1941.31 -1753.75)"/><path class="cls-3" d="M2443.35,1990.51s22.56-33.2,45.74-13.78.62,129.68-45.74,110.26S2443.35,1990.51,2443.35,1990.51Z" transform="translate(-1941.31 -1753.75)"/><rect class="cls-6" x="2174.64" y="2052.57" width="4.99" height="35.75" transform="matrix(1, -0.07, 0.07, 1, -2088.54, -1586.98)"/><rect class="cls-6" x="2428.41" y="2065.98" width="39.52" height="4.99" transform="translate(-1737.7 2602.53) rotate(-85.74)"/><path class="cls-6" d="M2147.86,2033.79c-5.32-17.69-5.37-30-.15-36.56a11.8,11.8,0,0,1,9.43-4.59l-.32,5,.16-2.49-.13,2.49a6.79,6.79,0,0,0-5.3,2.81c-2.29,3-5.2,11,1.09,31.92Z" transform="translate(-1941.31 -1753.75)"/><path class="cls-6" d="M2479.43,2033.79l-4.78-1.44c6.28-20.88,3.37-29,1.08-31.92a6.8,6.8,0,0,0-5.3-2.81l-.29-5a11.77,11.77,0,0,1,9.43,4.59C2484.79,2003.79,2484.75,2016.1,2479.43,2033.79Z" transform="translate(-1941.31 -1753.75)"/><path class="cls-5" d="M2167.93,2093.06a11.59,11.59,0,0,1-2.42-.28,3.16,3.16,0,0,1-.56-.33c-1.42,4.13-4,6.91-6.88,6.91-4.46,0-8.08-6.44-8.08-14.38s3.58-14.32,8-14.38c2.66-.32,2-4,0-3.88-6.46.06-11.68,9.38-11.68,20.89s5.26,20.91,11.74,20.91c5.43,0,9.94-6.57,11.3-15.46C2168.89,2093.06,2168.41,2093.07,2167.93,2093.06Z" transform="translate(-1941.31 -1753.75)"/><path class="cls-5" d="M2466.82,2066.72c-2-.1-2.65,3.56,0,3.88,4.44.06,8,6.47,8,14.38s-3.62,14.38-8.08,14.38c-2.49,0-4.66-2.08-6.14-5.24-.43.32-.83.68-1.28,1-1,.63-2,1.19-3,1.77,1.91,6.88,5.85,11.66,10.46,11.66,6.49,0,11.75-9.36,11.75-20.91S2473.28,2066.78,2466.82,2066.72Z" transform="translate(-1941.31 -1753.75)"/><path class="cls-2" d="M2176.41,1983.71c-1-59.43,43.31-90.3,43.31-90.3,39.94,70,150,93.81,250.58,59,0,0-9.77-168.2-166.87-158.33S2176.41,1983.71,2176.41,1983.71Z" transform="translate(-1941.31 -1753.75)"/></svg>